<?xml version="1.0" encoding="UTF-8"?><svg id="Layer_2" xmlns="http://www.w3.org/2000/svg" xmlns:xlink="http://www.w3.org/1999/xlink" viewBox="0 0 385.5 158.3"><defs><style>.cls-1{fill:#ed1c24;}.cls-2{fill:none;}.cls-3{fill:url(#New_Gradient_Swatch-2);}.cls-4{fill:url(#New_Gradient_Swatch);}.cls-5{fill:url(#New_Gradient_Swatch-3);}.cls-6{fill:#bc2025;}</style><linearGradient id="New_Gradient_Swatch" x1="103.2" y1="63.8" x2="163.7" y2="66.7" gradientUnits="userSpaceOnUse"><stop offset="0" stop-color="#ed1c24"/><stop offset="1" stop-color="#a91e22"/></linearGradient><linearGradient id="New_Gradient_Swatch-2" x1="172.8" y1="42.1" x2="189.2" y2="24.4" xlink:href="#New_Gradient_Swatch"/><linearGradient id="New_Gradient_Swatch-3" x1="229.5" y1="141.9" x2="245.8" y2="124.2" xlink:href="#New_Gradient_Swatch"/></defs><g id="Layer_1-2"><path class="cls-1" d="M366.5,113.9c-2.8,13.9-11.9,22-25.3,27.8h-69.3c0,0-14.9-33.9-14.9-33.9h-43.3c0,0-20.8,33.9-20.8,33.9l-34.1.2,39-64.3,47-.2-7.9-18.4h-28.8c0,0,25.5-41.6,25.5-41.6,13-3.7,23.2,1.8,30,18.4l30.6,73.3c3,6.6,8.4,10.5,16.6,11.1h18.8c10.6-2.1,13.9-7.8,13.1-16.9-.4-7.5-6.1-11-13.5-11.6h-28.1l-10.2-24.3h8.2s.2,0,.2,0h14.6c1.8-1.1,4.5-3,6.6-6.3,1.2-1.9,3.3-5.1,2.9-9.5-.3-3.5-2.1-6-3-7.1-2.7-3.5-6.2-5-7.7-5.5-5.5.1-11.1.2-16.8.2-5.9,0-11.2-.1-17-.2-.3-1-3.4-8-4.2-9.6-1.1-2.1-2.3-3.6-3.4-5-1.6-1.9-3.9-4.6-7.2-7.3h54.4c3.3.6,10,2.4,16.5,7.7,7,5.6,10.1,12.3,11.3,15.4,1.1,2.8,2.8,8.2,2.2,15.1-.6,7.1-3.3,12.2-4.9,14.8,16.1,6.7,25.6,24.8,22.7,43.7Z"/><polygon class="cls-6" points="244.8 77.5 257 107.9 213.9 107.9 197.7 77.7 244.8 77.5"/><path class="cls-6" d="M294.3,109.2c4.6,10.8,9.3,21.6,13.9,32.4h18.6c2.6-1.2,5.4-3,8-5.6,10.6-10.7,8.6-26.7,8.2-29.4,0,1.2-.2,5.1-3.1,8.7-3.8,4.7-9.3,5.1-10.2,5.1h-19.1c-1.7,0-5.9-.4-10.1-3.4-3.8-2.7-5.6-6.2-6.3-7.8Z"/><path class="cls-6" d="M323.1,49.4s.2,1,.2,1c0,0,0-.4,0-.4,0,0,4.9,17.2-2.4,29.3-3.7,6.1-11.5,12.5-19.6,12.5,0,0,0,0-.1,0l-10.2-24.4h22.6c1.2-.7,8.8-5.1,9.8-13,.4-2.9-.3-5-.3-5Z"/><path class="cls-4" d="M179.4,78.2c-3.1,5.2-6.8,10.4-9.9,15.7-2.6,4.5-5.2,8.9-7.8,13.4-47.8,0-95.6,0-143.3,0,5.6-9.6,11.2-19.4,16.8-29h28.2l18.5-29.5h-33.4l18.8-30.5h78.3l-36.7,60h70.6Z"/><circle class="cls-3" cx="176.8" cy="37.8" r="17"/><circle class="cls-5" cx="233.4" cy="137.6" r="17"/><rect class="cls-2" width="385.5" height="158.3"/></g></svg>
